<svg width="163" height="39" viewBox="0 0 163 39" fill="none" xmlns="http://www.w3.org/2000/svg">
<path d="M51.3941 29.02V25.952L62.2621 16.67L65.1741 17.45H51.4721V14.226H66.8381V17.294L55.9701 26.576L53.4741 25.822H66.8901V29.02H51.3941Z" fill="white"/>
<path d="M73.8549 25.432L72.6329 24.99L81.4209 14.226H86.1529L73.4649 29.02H69.5129V9H73.8549V25.432ZM77.2089 21.766L80.4069 19.296L86.5689 29.02H81.6029L77.2089 21.766Z" fill="white"/>
<path d="M90.5694 17.788H104.661V21.558H90.5694V17.788ZM105.103 9.52V13.316H90.6214L92.8574 11.054V29.02H88.4374V9.52H105.103Z" fill="white"/>
<path d="M107.7 9H112.042V29.02H107.7V9Z" fill="white"/>
<path d="M123.794 29.41C121.956 29.41 120.344 29.0893 118.958 28.448C117.571 27.7893 116.488 26.8793 115.708 25.718C114.928 24.5393 114.538 23.1787 114.538 21.636C114.538 20.076 114.928 18.7153 115.708 17.554C116.488 16.3753 117.571 15.4653 118.958 14.824C120.344 14.1653 121.956 13.836 123.794 13.836C125.631 13.836 127.243 14.1653 128.63 14.824C130.016 15.4653 131.091 16.3753 131.854 17.554C132.634 18.7153 133.024 20.076 133.024 21.636C133.024 23.1787 132.634 24.5393 131.854 25.718C131.091 26.8793 130.016 27.7893 128.63 28.448C127.243 29.0893 125.631 29.41 123.794 29.41ZM123.794 26.108C124.799 26.108 125.657 25.926 126.368 25.562C127.096 25.198 127.65 24.6867 128.032 24.028C128.43 23.352 128.63 22.5547 128.63 21.636C128.63 20.7 128.43 19.9027 128.032 19.244C127.65 18.568 127.096 18.048 126.368 17.684C125.657 17.32 124.799 17.138 123.794 17.138C122.806 17.138 121.948 17.32 121.22 17.684C120.492 18.048 119.928 18.568 119.53 19.244C119.148 19.9027 118.958 20.7 118.958 21.636C118.958 22.5547 119.148 23.352 119.53 24.028C119.928 24.6867 120.492 25.198 121.22 25.562C121.948 25.926 122.806 26.108 123.794 26.108Z" fill="white"/>
<path d="M154.678 26.654H153.248L157.876 14.226H162.218L156.498 29.02H152.052L147.112 16.254H148.672L143.654 29.02H139.208L133.488 14.226H137.882L142.536 26.654H141.054L145.786 14.226H150.024L154.678 26.654Z" fill="white"/>
<path fill-rule="evenodd" clip-rule="evenodd" d="M38.5472 13.7511C38.5447 13.7769 38.5423 13.8028 38.5396 13.8289C38.5153 14.0299 38.4865 14.2304 38.4529 14.4302C38.4194 14.6299 38.3813 14.8288 38.3385 15.0268C38.2957 15.2249 38.2484 15.4217 38.1965 15.6174C38.1445 15.8132 38.0881 16.0079 38.0273 16.2011C37.9665 16.3944 37.9011 16.5859 37.8312 16.7763C37.7614 16.9664 37.6872 17.155 37.6087 17.3418C37.5301 17.5286 37.4472 17.7134 37.3603 17.8964C37.2733 18.0794 37.1818 18.2602 37.0865 18.439C36.991 18.6177 36.8914 18.7943 36.7879 18.9683C36.6843 19.1423 36.5767 19.314 36.4649 19.4833C36.3534 19.6524 36.2378 19.8189 36.1186 19.9827C35.9994 20.1464 35.8762 20.3076 35.7496 20.4658C35.6227 20.6239 35.4924 20.7791 35.3585 20.9313C35.2245 21.0834 35.087 21.2323 34.9462 21.3783C34.8052 21.524 34.6611 21.6665 34.5136 21.8058C34.3662 21.9449 34.2153 22.0808 34.0617 22.213C33.908 22.3452 33.7512 22.4738 33.5914 22.5988C33.4316 22.7237 33.2692 22.8451 33.1037 22.9626C32.9808 23.0487 32.8565 23.1329 32.7308 23.2149C32.6873 23.2447 32.6436 23.2741 32.5997 23.3036C32.4291 23.4132 32.2558 23.519 32.0804 23.6208C31.9048 23.7225 31.7271 23.8203 31.547 23.9138C31.3668 24.0074 31.1846 24.0969 31.0004 24.182C30.8163 24.2671 30.6301 24.3479 30.4422 24.4244C30.2542 24.5011 30.0645 24.5734 29.8731 24.6411C29.6818 24.7087 29.4891 24.7723 29.2947 24.8312C29.1003 24.8901 28.9047 24.9447 28.7079 24.9945C28.511 25.0445 28.3132 25.0897 28.1144 25.1307C27.9156 25.1716 27.7156 25.2077 27.5151 25.2394C27.3146 25.2711 27.1131 25.298 26.9115 25.3203C26.7095 25.3425 26.5073 25.3603 26.3047 25.3732C26.1036 25.3861 25.9022 25.3943 25.7005 25.3981L25.6944 25.3983L20.1082 25.4988L18.6537 25.5251L15.0672 25.5896L2.27139 25.8191L14.8232 33.0299L20.3103 36.1821L20.2488 32.9324L26.9724 32.8115C26.9993 32.8128 27.0261 32.8139 27.053 32.8153C27.1289 32.8128 27.2047 32.8096 27.2804 32.8059C27.4074 32.8026 27.5347 32.7974 27.6616 32.7902C27.8643 32.7771 28.0664 32.7595 28.2684 32.7373C28.4703 32.7151 28.6715 32.6881 28.8723 32.6565C29.0728 32.6248 29.2728 32.5886 29.4716 32.5477C29.6704 32.507 29.8684 32.4615 30.065 32.4115C30.2619 32.3615 30.4575 32.3071 30.6519 32.2482C30.846 32.1893 31.0389 32.126 31.2303 32.0581C31.4217 31.9902 31.6114 31.9179 31.7993 31.8414C31.9872 31.765 32.1734 31.6841 32.3576 31.5988C32.5418 31.5137 32.724 31.4244 32.9041 31.3309C33.0843 31.2374 33.2619 31.1396 33.4375 31.0378C33.6132 30.9361 33.7863 30.8302 33.9568 30.7206C34.1274 30.6108 34.2954 30.4971 34.4609 30.3796C34.6263 30.2621 34.7887 30.1408 34.9486 30.0158C35.1081 29.8908 35.2651 29.7623 35.4188 29.63C35.5725 29.4978 35.7233 29.3622 35.8708 29.2229C36.0182 29.0838 36.1626 28.9413 36.3036 28.7954C36.4445 28.6497 36.5819 28.5005 36.7159 28.3483C36.8498 28.1962 36.9803 28.041 37.107 27.8828C37.2338 27.7247 37.3568 27.5635 37.476 27.3997C37.5952 27.236 37.7107 27.0695 37.8223 26.9004C37.9338 26.7313 38.0414 26.5596 38.1453 26.3854C38.2488 26.2113 38.3484 26.0347 38.4439 25.856C38.5395 25.6773 38.6307 25.4965 38.7177 25.3135C38.7406 25.2632 38.7632 25.2128 38.7854 25.1622C38.8479 25.0287 38.9081 24.8942 38.966 24.7589C39.0446 24.5721 39.1188 24.3834 39.1886 24.1933C39.2584 24.0032 39.3236 23.8114 39.3847 23.6182C39.4455 23.425 39.5019 23.2303 39.5539 23.0344C39.6058 22.8386 39.6531 22.6417 39.6959 22.4439C39.7387 22.2458 39.7768 22.0468 39.8104 21.847C39.8439 21.6472 39.8728 21.4467 39.897 21.2457C39.9213 21.0447 39.9408 20.8429 39.9558 20.6409C39.9707 20.4389 39.9811 20.2366 39.9866 20.034C39.9921 19.8315 39.993 19.6289 39.9892 19.4264C39.9739 19.0044 39.9382 18.5836 39.8822 18.1651C39.872 18.0138 39.8593 17.8628 39.8439 17.7118C39.758 17.144 39.6349 16.5826 39.4755 16.0307C39.316 15.4788 39.1205 14.9382 38.8902 14.4117C38.7823 14.1882 38.6681 13.9677 38.5478 13.7504L38.5472 13.7511Z" fill="url(#paint0_linear_7_155)"/>
<path fill-rule="evenodd" clip-rule="evenodd" d="M20.7285 2.67834L20.79 5.92796L14.0641 6.04908C14.038 6.04783 14.0119 6.04658 13.9858 6.04532C13.9596 6.04747 13.9337 6.04965 13.9077 6.05183C13.3585 6.06336 12.8104 6.10909 12.2672 6.18865C11.698 6.27379 11.1352 6.39617 10.582 6.55484C10.0289 6.71327 9.48675 6.90797 8.95937 7.13711C8.43194 7.36648 7.92004 7.62992 7.42709 7.9258C6.93414 8.22167 6.46117 8.54966 6.01124 8.90733C5.56132 9.265 5.1353 9.65152 4.73599 10.0647C4.33668 10.4778 3.96517 10.9168 3.62342 11.3785C3.28167 11.8402 2.97055 12.3238 2.69228 12.826C2.54464 13.1113 2.40787 13.4018 2.28151 13.6974C2.16733 13.9227 2.0597 14.1512 1.95869 14.3825C1.74843 14.9167 1.5736 15.4641 1.43496 16.0214C1.29659 16.5785 1.19488 17.1442 1.1304 17.7147C1.0662 18.2851 1.03917 18.8593 1.05016 19.4334C1.06504 19.8808 1.10295 20.3275 1.1635 20.7712C1.17242 20.8971 1.18311 21.0225 1.19551 21.1479C1.28134 21.7158 1.40452 22.2772 1.56406 22.8291C1.72337 23.3809 1.91907 23.9216 2.1492 24.4481C2.25707 24.6716 2.37125 24.8923 2.49162 25.1093C2.5556 24.5464 2.65606 23.9886 2.79207 23.4387C2.93043 22.8816 3.10527 22.3342 3.31557 21.7998C3.52583 21.2656 3.77089 20.7454 4.04916 20.2432C4.32742 19.741 4.63855 19.2574 4.98006 18.7957C5.3218 18.334 5.69355 17.895 6.09286 17.4819C6.49217 17.0687 6.91799 16.682 7.36811 16.3246C7.67204 16.0938 7.98607 15.8761 8.30882 15.6724C8.46482 15.5592 8.62321 15.4494 8.78396 15.343C9.27691 15.0472 9.78881 14.7837 10.3162 14.5543C10.8437 14.325 11.3857 14.1305 11.9389 13.9718C12.4921 13.8134 13.0548 13.691 13.6241 13.6059C14.1925 13.5209 14.7659 13.4728 15.3405 13.4624L15.3456 13.4623L20.9308 13.3619L22.3855 13.3359L25.9722 13.2714L38.7674 13.0413L26.2156 5.83049L20.7285 2.67834Z" fill="url(#paint1_linear_7_155)"/>
<defs>
<linearGradient id="paint0_linear_7_155" x1="29.9061" y1="30.0001" x2="37.4061" y2="17.0001" gradientUnits="userSpaceOnUse">
<stop stop-color="#FE37AF"/>
<stop offset="1" stop-color="#FE37AF" stop-opacity="0"/>
</linearGradient>
<linearGradient id="paint1_linear_7_155" x1="17" y1="10.5" x2="0.406129" y2="23" gradientUnits="userSpaceOnUse">
<stop stop-color="#7F00F3"/>
<stop offset="1" stop-color="#7F00F3" stop-opacity="0"/>
</linearGradient>
</defs>
</svg>
